<?xml version="1.0" encoding="UTF-8" standalone="no"?>
<!-- Created with Inkscape (http://www.inkscape.org/) -->

<svg
   xmlns:dc="http://purl.org/dc/elements/1.1/"
   xmlns:cc="http://creativecommons.org/ns#"
   xmlns:rdf="http://www.w3.org/1999/02/22-rdf-syntax-ns#"
   xmlns:svg="http://www.w3.org/2000/svg"
   xmlns="http://www.w3.org/2000/svg"
   xmlns:sodipodi="http://sodipodi.sourceforge.net/DTD/sodipodi-0.dtd"
   xmlns:inkscape="http://www.inkscape.org/namespaces/inkscape"
   width="210mm"
   height="297mm"
   viewBox="0 0 210 297"
   version="1.1"
   id="svg8"
   inkscape:version="0.92.4 (f8dce91, 2019-08-02)"
   sodipodi:docname="marqueur.svg">
  <defs
     id="defs2" />
  <sodipodi:namedview
     id="base"
     pagecolor="#ffffff"
     bordercolor="#666666"
     borderopacity="1.0"
     inkscape:pageopacity="0.0"
     inkscape:pageshadow="2"
     inkscape:zoom="0.49497475"
     inkscape:cx="-81.25416"
     inkscape:cy="832.62878"
     inkscape:document-units="mm"
     inkscape:current-layer="layer1"
     showgrid="false"
     inkscape:snap-object-midpoints="true"
     inkscape:window-width="1853"
     inkscape:window-height="1025"
     inkscape:window-x="67"
     inkscape:window-y="27"
     inkscape:window-maximized="1">
    <inkscape:grid
       type="xygrid"
       id="grid870" />
  </sodipodi:namedview>
  <metadata
     id="metadata5">
    <rdf:RDF>
      <cc:Work
         rdf:about="">
        <dc:format>image/svg+xml</dc:format>
        <dc:type
           rdf:resource="http://purl.org/dc/dcmitype/StillImage" />
        <dc:title />
      </cc:Work>
    </rdf:RDF>
  </metadata>
  <g
     inkscape:label="Calque 1"
     inkscape:groupmode="layer"
     id="layer1">
    <path
       style="opacity:1;fill:#e78000;fill-opacity:1;stroke:#000000;stroke-width:15.11811043;stroke-linecap:round;stroke-miterlimit:4;stroke-dasharray:none;stroke-dashoffset:0;stroke-opacity:1"
       d="m 360,232.51953 c -99.41125,0 -180.02627,80.58875 -180,180 0.0105,39.82197 13.27795,78.50756 71.63898,154.25378 C 310,642.51953 335.00001,717.51952 360,812.51953 c 24.99999,-95.00001 50.00004,-170 108.31402,-245.73678 C 526.628,491.04598 539.97748,452.35869 540,412.51953 c 0.0562,-99.41124 -80.58875,-180 -180,-180 z"
       transform="scale(0.26458333)"
       id="path872"
       inkscape:connector-curvature="0"
       sodipodi:nodetypes="ssscsss" />
    <g
       transform="matrix(0.85478497,0,0,0.85478497,62.593019,-825.22186)"
       id="layer1-7"
       style="fill:#000000;fill-opacity:1;stroke:#000000;stroke-width:0;stroke-miterlimit:4;stroke-dasharray:none;stroke-opacity:1">
      <path
         id="path4151-2-3-7-5"
         d="m 53.886521,1063.7896 c -3.15221,-0.6121 -11.155884,5.609 -13.920784,15.6375 3.549185,0.2322 6.175846,1.8658 6.793928,4.2345 0.911605,3.4935 -2.750497,7.4648 -8.167266,8.8644 -5.415454,1.3992 -10.537733,-0.3011 -11.43417,-3.7976 -0.406109,-1.5839 0.126786,-3.3478 1.487765,-4.942 -1.788521,0.9035 -3.461073,1.904 -4.983569,3.0173 -4.756687,-7.636 -17.2627388,-13.6453 -21.3701888,-14.2018 -0.688498,-0.093 -1.130599,-0.043 -1.269305,0.1875 -2.826161,4.6906 13.3878758,10.9238 18.1656638,17.9681 -5.560207,6.0697 -7.759397,13.6099 -5.74308,19.7991 1.456475,4.4707 6.148879,8.3856 12.193686,9.8632 3.598499,0.8796 10.172794,1.1631 14.950801,-0.022 3.852435,-0.9552 8.226095,-3.0794 11.090849,-5.3998 7.467641,-6.0486 12.611001,-11.0643 14.773951,-17.7599 0.74572,-2.3085 1.61107,-3.7014 -0.25996,-6.1781 -1.74676,-2.3121 -8.6224,0.7144 -15.054834,4.6611 -6.432548,3.9468 -10.492796,8.5445 -19.934423,5.2438 -4.487045,-1.5687 -6.575352,-6.2041 -0.509785,-3.2066 8.015455,3.9611 13.472948,-1.6559 20.589845,-5.8367 7.117007,-4.1809 16.874607,-6.8956 17.537567,-3.2949 0.88888,4.8278 3.61041,5.2207 2.03271,-1.9592 -0.69296,-3.1536 -4.77545,-7.0761 -20.506649,-7.0333 -1.848123,0 -3.967126,0.1092 -6.148882,0.2291 3.398637,-9.0802 12.100396,-12.7558 10.726752,-15.3253 -0.256829,-0.4805 -0.674786,-0.6777 -1.040622,-0.7488 z m -16.168057,16.8962 c -2.974964,0.8535 -4.837814,3.3776 -4.182499,5.5558 0.655271,2.1781 3.590614,3.2208 6.554639,2.3306 2.964166,-0.8903 4.835695,-3.377 4.1825,-5.5559 -0.475585,-1.5864 -2.144867,-2.6213 -4.3183,-2.6483 -0.7966,-0.01 -1.593131,0.1333 -2.23634,0.3178 z"
         style="fill:#000000;fill-opacity:1;stroke:#000000;stroke-width:0;stroke-miterlimit:4;stroke-dasharray:none;stroke-opacity:1"
         inkscape:connector-curvature="0" />
    </g>
  </g>
</svg>
